<?xml version="1.0" standalone="no"?>
<!DOCTYPE svg PUBLIC "-//W3C//DTD SVG 20010904//EN"
 "http://www.w3.org/TR/2001/REC-SVG-20010904/DTD/svg10.dtd">
<svg version="1.0" xmlns="http://www.w3.org/2000/svg"
 width="512.000000pt" height="512.000000pt" viewBox="0 0 512.000000 512.000000"
 preserveAspectRatio="xMidYMid meet">

<g transform="translate(0.000000,512.000000) scale(0.100000,-0.100000)"
fill="#000000" stroke="none">
<path d="M731 2718 c-189 -519 -355 -971 -368 -1006 l-23 -62 191 2 191 3 70
198 71 197 422 0 422 0 69 -200 69 -200 199 0 c154 0 197 3 194 13 -2 6 -170
459 -374 1004 l-369 993 -210 0 -211 0 -343 -942z m644 315 c43 -137 109 -340
147 -453 39 -113 72 -213 75 -222 5 -17 -14 -18 -311 -18 -174 0 -316 3 -316
6 0 4 31 95 69 203 38 108 108 316 156 464 48 147 90 267 94 267 4 0 43 -111
86 -247z"/>
<path d="M3060 3638 c-6 -13 -181 -464 -389 -1003 l-378 -980 100 -3 c55 -1
104 1 108 5 9 10 769 1977 769 1992 0 7 -32 11 -100 11 -95 0 -101 -1 -110
-22z"/>
<path d="M3557 3653 c-4 -3 -7 -456 -7 -1005 l0 -998 620 0 620 0 -2 163 -3
162 -437 3 -438 2 0 840 0 840 -173 0 c-96 0 -177 -3 -180 -7z"/>
</g>
</svg>
