<?xml version="1.0" standalone="no"?>
<!DOCTYPE svg PUBLIC "-//W3C//DTD SVG 20010904//EN"
 "http://www.w3.org/TR/2001/REC-SVG-20010904/DTD/svg10.dtd">
<svg version="1.0" xmlns="http://www.w3.org/2000/svg"
 width="512.000000pt" height="512.000000pt" viewBox="0 0 512.000000 512.000000"
 preserveAspectRatio="xMidYMid meet">

<g transform="translate(0.000000,512.000000) scale(0.100000,-0.100000)"
fill="#000000" stroke="none">
<path d="M2305 5100 c-431 -48 -806 -182 -1159 -415 -361 -239 -652 -564 -850
-950 -246 -480 -332 -998 -255 -1538 59 -414 203 -766 470 -1147 112 -160 388
-433 549 -543 310 -211 542 -320 870 -406 231 -61 537 -89 784 -71 515 36 955
196 1366 499 41 30 80 60 86 65 6 6 38 34 71 63 61 53 204 198 265 268 101
116 230 310 310 466 261 508 346 1071 247 1629 -71 398 -236 771 -491 1106
-100 132 -314 350 -423 431 -17 12 -52 40 -80 61 -75 57 -248 164 -350 214
-264 133 -509 211 -800 254 -119 18 -496 26 -610 14z m-441 -2433 c204 -545
372 -998 374 -1004 3 -10 -40 -13 -194 -13 l-199 0 -69 200 -69 200 -422 0
-422 0 -71 -197 -70 -198 -191 -3 -191 -2 23 62 c13 35 179 487 368 1006 l343
942 211 0 210 0 369 -993z m1406 982 c0 -15 -760 -1982 -769 -1992 -4 -4 -53
-6 -108 -5 l-100 3 378 980 c208 539 383 990 389 1003 9 21 15 22 110 22 68 0
100 -4 100 -11z m640 -829 l0 -840 438 -2 437 -3 3 -162 2 -163 -620 0 -620 0
0 998 c0 549 3 1002 7 1005 3 4 84 7 180 7 l173 0 0 -840z"/>
<path d="M1195 3013 c-48 -148 -118 -356 -156 -464 -38 -108 -69 -199 -69
-203 0 -3 142 -6 316 -6 297 0 316 1 311 18 -3 9 -36 109 -75 222 -38 113
-104 316 -147 453 -43 136 -82 247 -86 247 -4 0 -46 -120 -94 -267z"/>
</g>
</svg>
